<?xml version="1.0" encoding="UTF-8" standalone="no"?>
<!DOCTYPE svg PUBLIC "-//W3C//DTD SVG 1.1//EN"
 "http://www.w3.org/Graphics/SVG/1.1/DTD/svg11.dtd">
<!-- Generated by graphviz version 2.40.1 (20161225.0304)
 -->
<!-- Title: dependencies Pages: 1 -->
<svg width="843pt" height="284pt"
 viewBox="0.00 0.00 843.00 284.00" xmlns="http://www.w3.org/2000/svg" xmlns:xlink="http://www.w3.org/1999/xlink">
<g id="graph0" class="graph" transform="scale(1 1) rotate(0) translate(4 280)">
<title>dependencies</title>
<polygon fill="#ffffff" stroke="transparent" points="-4,4 -4,-280 839,-280 839,4 -4,4"/>
<text text-anchor="start" x="396.5091" y="-42.4" font-family="sans-serif" font-weight="bold" font-size="14.00" fill="#000000">Legend</text>
<polygon fill="#ffffb3" stroke="transparent" points="183.5,-10 183.5,-30 203.5,-30 203.5,-10 183.5,-10"/>
<text text-anchor="start" x="207.129" y="-15.4" font-family="sans-serif" font-size="14.00" fill="#000000"> &#160;Declarations</text>
<polygon fill="#8dd3c7" stroke="transparent" points="296.5,-10 296.5,-30 316.5,-30 316.5,-10 296.5,-10"/>
<text text-anchor="start" x="320.2251" y="-15.4" font-family="sans-serif" font-size="14.00" fill="#000000"> &#160;Module</text>
<polygon fill="#80b1d3" stroke="transparent" points="382.5,-10 382.5,-30 402.5,-30 402.5,-10 382.5,-10"/>
<text text-anchor="start" x="406.2812" y="-15.4" font-family="sans-serif" font-size="14.00" fill="#000000"> &#160;Bootstrap</text>
<polygon fill="#fdb462" stroke="transparent" points="479.5,-10 479.5,-30 499.5,-30 499.5,-10 479.5,-10"/>
<text text-anchor="start" x="503.1732" y="-15.4" font-family="sans-serif" font-size="14.00" fill="#000000"> &#160;Providers</text>
<polygon fill="#fb8072" stroke="transparent" points="575.5,-10 575.5,-30 595.5,-30 595.5,-10 575.5,-10"/>
<text text-anchor="start" x="599.2258" y="-15.4" font-family="sans-serif" font-size="14.00" fill="#000000"> &#160;Exports</text>
<g id="clust1" class="cluster">
<title>cluster_SharedModule</title>
<polygon fill="none" stroke="#000000" stroke-dasharray="1,5" points="8,-70 8,-268 827,-268 827,-70 8,-70"/>
</g>
<g id="clust2" class="cluster">
<title>cluster_SharedModule_declarations</title>
<polygon fill="none" stroke="#000000" points="262,-78 262,-130 819,-130 819,-78 262,-78"/>
</g>
<g id="clust7" class="cluster">
<title>cluster_SharedModule_imports</title>
<polygon fill="none" stroke="#000000" points="16,-78 16,-130 254,-130 254,-78 16,-78"/>
</g>
<g id="clust8" class="cluster">
<title>cluster_SharedModule_exports</title>
<polygon fill="none" stroke="#000000" points="120,-208 120,-260 690,-260 690,-208 120,-208"/>
</g>
<!-- TopBarComponent -->
<g id="node1" class="node">
<title>TopBarComponent</title>
<polygon fill="#ffffb3" stroke="#000000" points="811.0968,-122 686.9032,-122 686.9032,-86 811.0968,-86 811.0968,-122"/>
<text text-anchor="middle" x="749" y="-99.8" font-family="Times,serif" font-size="14.00" fill="#000000">TopBarComponent</text>
</g>
<!-- SharedModule -->
<g id="node5" class="node">
<title>SharedModule</title>
<polygon fill="#8dd3c7" stroke="#000000" points="426.4231,-187 423.4231,-191 402.4231,-191 399.4231,-187 327.5769,-187 327.5769,-151 426.4231,-151 426.4231,-187"/>
<text text-anchor="middle" x="377" y="-164.8" font-family="Times,serif" font-size="14.00" fill="#000000">SharedModule</text>
</g>
<!-- TopBarComponent&#45;&gt;SharedModule -->
<g id="edge1" class="edge">
<title>TopBarComponent&#45;&gt;SharedModule</title>
<path fill="none" stroke="#000000" d="M749,-122.1061C749,-141.3391 749,-169 749,-169 749,-169 436.3987,-169 436.3987,-169"/>
<polygon fill="#000000" stroke="#000000" points="436.3988,-165.5001 426.3987,-169 436.3987,-172.5001 436.3988,-165.5001"/>
</g>
<!-- BottomSectionComponent -->
<g id="node2" class="node">
<title>BottomSectionComponent</title>
<polygon fill="#ffffb3" stroke="#000000" points="668.8341,-122 503.1659,-122 503.1659,-86 668.8341,-86 668.8341,-122"/>
<text text-anchor="middle" x="586" y="-99.8" font-family="Times,serif" font-size="14.00" fill="#000000">BottomSectionComponent</text>
</g>
<!-- BottomSectionComponent&#45;&gt;SharedModule -->
<g id="edge2" class="edge">
<title>BottomSectionComponent&#45;&gt;SharedModule</title>
<path fill="none" stroke="#000000" d="M519.875,-122.027C519.875,-138.3976 519.875,-160 519.875,-160 519.875,-160 436.5698,-160 436.5698,-160"/>
<polygon fill="#000000" stroke="#000000" points="436.5698,-156.5001 426.5698,-160 436.5697,-163.5001 436.5698,-156.5001"/>
</g>
<!-- TruncatePipe -->
<g id="node3" class="node">
<title>TruncatePipe</title>
<polygon fill="#ffffb3" stroke="#000000" points="485.1361,-122 394.8639,-122 394.8639,-86 485.1361,-86 485.1361,-122"/>
<text text-anchor="middle" x="440" y="-99.8" font-family="Times,serif" font-size="14.00" fill="#000000">TruncatePipe</text>
</g>
<!-- TruncatePipe&#45;&gt;SharedModule -->
<g id="edge3" class="edge">
<title>TruncatePipe&#45;&gt;SharedModule</title>
<path fill="none" stroke="#000000" d="M410.4467,-122.1061C410.4467,-122.1061 410.4467,-140.991 410.4467,-140.991"/>
<polygon fill="#000000" stroke="#000000" points="406.9468,-140.9909 410.4467,-150.991 413.9468,-140.991 406.9468,-140.9909"/>
</g>
<!-- FillIfEmptyPipe -->
<g id="node4" class="node">
<title>FillIfEmptyPipe</title>
<polygon fill="#ffffb3" stroke="#000000" points="376.4972,-122 269.5028,-122 269.5028,-86 376.4972,-86 376.4972,-122"/>
<text text-anchor="middle" x="323" y="-99.8" font-family="Times,serif" font-size="14.00" fill="#000000">FillIfEmptyPipe</text>
</g>
<!-- FillIfEmptyPipe&#45;&gt;SharedModule -->
<g id="edge4" class="edge">
<title>FillIfEmptyPipe&#45;&gt;SharedModule</title>
<path fill="none" stroke="#000000" d="M352.1438,-122.1061C352.1438,-122.1061 352.1438,-140.991 352.1438,-140.991"/>
<polygon fill="#000000" stroke="#000000" points="348.6438,-140.9909 352.1438,-150.991 355.6438,-140.991 348.6438,-140.9909"/>
</g>
<!-- TopBarComponent  -->
<g id="node8" class="node">
<title>TopBarComponent </title>
<polygon fill="#fb8072" stroke="#000000" points="681.5974,-252 554.4026,-252 554.4026,-216 681.5974,-216 681.5974,-252"/>
<text text-anchor="middle" x="618" y="-229.8" font-family="Times,serif" font-size="14.00" fill="#000000">TopBarComponent </text>
</g>
<!-- SharedModule&#45;&gt;TopBarComponent  -->
<g id="edge7" class="edge">
<title>SharedModule&#45;&gt;TopBarComponent </title>
<path fill="none" stroke="#000000" stroke-dasharray="5,2" d="M426.431,-178C495.2114,-178 611.4343,-178 611.4343,-178 611.4343,-178 611.4343,-205.973 611.4343,-205.973"/>
<polygon fill="#000000" stroke="#000000" points="607.9343,-205.973 611.4343,-215.973 614.9343,-205.973 607.9343,-205.973"/>
</g>
<!-- BottomSectionComponent  -->
<g id="node9" class="node">
<title>BottomSectionComponent </title>
<polygon fill="#fb8072" stroke="#000000" points="536.3339,-252 367.6661,-252 367.6661,-216 536.3339,-216 536.3339,-252"/>
<text text-anchor="middle" x="452" y="-229.8" font-family="Times,serif" font-size="14.00" fill="#000000">BottomSectionComponent </text>
</g>
<!-- SharedModule&#45;&gt;BottomSectionComponent  -->
<g id="edge8" class="edge">
<title>SharedModule&#45;&gt;BottomSectionComponent </title>
<path fill="none" stroke="#000000" stroke-dasharray="5,2" d="M396.8971,-187.1061C396.8971,-187.1061 396.8971,-205.991 396.8971,-205.991"/>
<polygon fill="#000000" stroke="#000000" points="393.3972,-205.9909 396.8971,-215.991 400.3972,-205.991 393.3972,-205.9909"/>
</g>
<!-- TruncatePipe  -->
<g id="node10" class="node">
<title>TruncatePipe </title>
<polygon fill="#fb8072" stroke="#000000" points="350.1355,-252 255.8645,-252 255.8645,-216 350.1355,-216 350.1355,-252"/>
<text text-anchor="middle" x="303" y="-229.8" font-family="Times,serif" font-size="14.00" fill="#000000">TruncatePipe </text>
</g>
<!-- SharedModule&#45;&gt;TruncatePipe  -->
<g id="edge9" class="edge">
<title>SharedModule&#45;&gt;TruncatePipe </title>
<path fill="none" stroke="#000000" stroke-dasharray="5,2" d="M338.9283,-187.1061C338.9283,-187.1061 338.9283,-205.991 338.9283,-205.991"/>
<polygon fill="#000000" stroke="#000000" points="335.4284,-205.9909 338.9283,-215.991 342.4284,-205.991 335.4284,-205.9909"/>
</g>
<!-- FillIfEmptyPipe  -->
<g id="node11" class="node">
<title>FillIfEmptyPipe </title>
<polygon fill="#fb8072" stroke="#000000" points="238.4983,-252 127.5017,-252 127.5017,-216 238.4983,-216 238.4983,-252"/>
<text text-anchor="middle" x="183" y="-229.8" font-family="Times,serif" font-size="14.00" fill="#000000">FillIfEmptyPipe </text>
</g>
<!-- SharedModule&#45;&gt;FillIfEmptyPipe  -->
<g id="edge10" class="edge">
<title>SharedModule&#45;&gt;FillIfEmptyPipe </title>
<path fill="none" stroke="#000000" stroke-dasharray="5,2" d="M327.3696,-178C270.8386,-178 186.2074,-178 186.2074,-178 186.2074,-178 186.2074,-205.973 186.2074,-205.973"/>
<polygon fill="#000000" stroke="#000000" points="182.7075,-205.973 186.2074,-215.973 189.7075,-205.973 182.7075,-205.973"/>
</g>
<!-- CommonModule -->
<g id="node6" class="node">
<title>CommonModule</title>
<polygon fill="#8dd3c7" stroke="#000000" points="245.6681,-122 242.6681,-126 221.6681,-126 218.6681,-122 134.3319,-122 134.3319,-86 245.6681,-86 245.6681,-122"/>
<text text-anchor="middle" x="190" y="-99.8" font-family="Times,serif" font-size="14.00" fill="#000000">CommonModule</text>
</g>
<!-- CommonModule&#45;&gt;SharedModule -->
<g id="edge5" class="edge">
<title>CommonModule&#45;&gt;SharedModule</title>
<path fill="none" stroke="#000000" d="M242.0412,-122.027C242.0412,-138.3976 242.0412,-160 242.0412,-160 242.0412,-160 317.5127,-160 317.5127,-160"/>
<polygon fill="#000000" stroke="#000000" points="317.5127,-163.5001 327.5127,-160 317.5126,-156.5001 317.5127,-163.5001"/>
</g>
<!-- MenuModule -->
<g id="node7" class="node">
<title>MenuModule</title>
<polygon fill="#8dd3c7" stroke="#000000" points="116.2092,-122 113.2092,-126 92.2092,-126 89.2092,-122 23.7908,-122 23.7908,-86 116.2092,-86 116.2092,-122"/>
<text text-anchor="middle" x="70" y="-99.8" font-family="Times,serif" font-size="14.00" fill="#000000">MenuModule</text>
</g>
<!-- MenuModule&#45;&gt;SharedModule -->
<g id="edge6" class="edge">
<title>MenuModule&#45;&gt;SharedModule</title>
<path fill="none" stroke="#000000" d="M70,-122.1061C70,-141.3391 70,-169 70,-169 70,-169 317.6751,-169 317.6751,-169"/>
<polygon fill="#000000" stroke="#000000" points="317.6752,-172.5001 327.6751,-169 317.6751,-165.5001 317.6752,-172.5001"/>
</g>
</g>
</svg>
