<?xml version="1.0" encoding="UTF-8" standalone="no"?>
<!DOCTYPE svg PUBLIC "-//W3C//DTD SVG 1.1//EN"
 "http://www.w3.org/Graphics/SVG/1.1/DTD/svg11.dtd">
<!-- Generated by graphviz version 2.40.1 (20161225.0304)
 -->
<!-- Title: dependencies Pages: 1 -->
<svg width="504pt" height="284pt"
 viewBox="0.00 0.00 504.00 284.00" xmlns="http://www.w3.org/2000/svg" xmlns:xlink="http://www.w3.org/1999/xlink">
<g id="graph0" class="graph" transform="scale(1 1) rotate(0) translate(4 280)">
<title>dependencies</title>
<polygon fill="#ffffff" stroke="transparent" points="-4,4 -4,-280 500,-280 500,4 -4,4"/>
<text text-anchor="start" x="227.0091" y="-42.4" font-family="sans-serif" font-weight="bold" font-size="14.00" fill="#000000">Legend</text>
<polygon fill="#ffffb3" stroke="transparent" points="14,-10 14,-30 34,-30 34,-10 14,-10"/>
<text text-anchor="start" x="37.629" y="-15.4" font-family="sans-serif" font-size="14.00" fill="#000000"> &#160;Declarations</text>
<polygon fill="#8dd3c7" stroke="transparent" points="127,-10 127,-30 147,-30 147,-10 127,-10"/>
<text text-anchor="start" x="150.7251" y="-15.4" font-family="sans-serif" font-size="14.00" fill="#000000"> &#160;Module</text>
<polygon fill="#80b1d3" stroke="transparent" points="213,-10 213,-30 233,-30 233,-10 213,-10"/>
<text text-anchor="start" x="236.7812" y="-15.4" font-family="sans-serif" font-size="14.00" fill="#000000"> &#160;Bootstrap</text>
<polygon fill="#fdb462" stroke="transparent" points="310,-10 310,-30 330,-30 330,-10 310,-10"/>
<text text-anchor="start" x="333.6732" y="-15.4" font-family="sans-serif" font-size="14.00" fill="#000000"> &#160;Providers</text>
<polygon fill="#fb8072" stroke="transparent" points="406,-10 406,-30 426,-30 426,-10 406,-10"/>
<text text-anchor="start" x="429.7258" y="-15.4" font-family="sans-serif" font-size="14.00" fill="#000000"> &#160;Exports</text>
<g id="clust1" class="cluster">
<title>cluster_MenuModule</title>
<polygon fill="none" stroke="#000000" stroke-dasharray="1,5" points="14.5,-70 14.5,-268 481.5,-268 481.5,-70 14.5,-70"/>
</g>
<g id="clust2" class="cluster">
<title>cluster_MenuModule_declarations</title>
<polygon fill="none" stroke="#000000" points="158.5,-78 158.5,-130 473.5,-130 473.5,-78 158.5,-78"/>
</g>
<g id="clust5" class="cluster">
<title>cluster_MenuModule_imports</title>
<polygon fill="none" stroke="#000000" points="22.5,-78 22.5,-130 150.5,-130 150.5,-78 22.5,-78"/>
</g>
<g id="clust6" class="cluster">
<title>cluster_MenuModule_exports</title>
<polygon fill="none" stroke="#000000" points="87.5,-208 87.5,-260 409.5,-260 409.5,-208 87.5,-208"/>
</g>
<!-- MenuVertComponent -->
<g id="node1" class="node">
<title>MenuVertComponent</title>
<polygon fill="#ffffb3" stroke="#000000" points="465.8641,-122 327.1359,-122 327.1359,-86 465.8641,-86 465.8641,-122"/>
<text text-anchor="middle" x="396.5" y="-99.8" font-family="Times,serif" font-size="14.00" fill="#000000">MenuVertComponent</text>
</g>
<!-- MenuModule -->
<g id="node3" class="node">
<title>MenuModule</title>
<polygon fill="#8dd3c7" stroke="#000000" points="283.7092,-187 280.7092,-191 259.7092,-191 256.7092,-187 191.2908,-187 191.2908,-151 283.7092,-151 283.7092,-187"/>
<text text-anchor="middle" x="237.5" y="-164.8" font-family="Times,serif" font-size="14.00" fill="#000000">MenuModule</text>
</g>
<!-- MenuVertComponent&#45;&gt;MenuModule -->
<g id="edge1" class="edge">
<title>MenuVertComponent&#45;&gt;MenuModule</title>
<path fill="none" stroke="#000000" d="M364.375,-122.1061C364.375,-141.3391 364.375,-169 364.375,-169 364.375,-169 293.6637,-169 293.6637,-169"/>
<polygon fill="#000000" stroke="#000000" points="293.6637,-165.5001 283.6637,-169 293.6637,-172.5001 293.6637,-165.5001"/>
</g>
<!-- MenuDropComponent -->
<g id="node2" class="node">
<title>MenuDropComponent</title>
<polygon fill="#ffffb3" stroke="#000000" points="308.759,-122 166.241,-122 166.241,-86 308.759,-86 308.759,-122"/>
<text text-anchor="middle" x="237.5" y="-99.8" font-family="Times,serif" font-size="14.00" fill="#000000">MenuDropComponent</text>
</g>
<!-- MenuDropComponent&#45;&gt;MenuModule -->
<g id="edge2" class="edge">
<title>MenuDropComponent&#45;&gt;MenuModule</title>
<path fill="none" stroke="#000000" d="M237.5,-122.1061C237.5,-122.1061 237.5,-140.991 237.5,-140.991"/>
<polygon fill="#000000" stroke="#000000" points="234.0001,-140.9909 237.5,-150.991 241.0001,-140.991 234.0001,-140.9909"/>
</g>
<!-- MenuVertComponent  -->
<g id="node5" class="node">
<title>MenuVertComponent </title>
<polygon fill="#fb8072" stroke="#000000" points="401.8645,-252 259.1355,-252 259.1355,-216 401.8645,-216 401.8645,-252"/>
<text text-anchor="middle" x="330.5" y="-229.8" font-family="Times,serif" font-size="14.00" fill="#000000">MenuVertComponent </text>
</g>
<!-- MenuModule&#45;&gt;MenuVertComponent  -->
<g id="edge4" class="edge">
<title>MenuModule&#45;&gt;MenuVertComponent </title>
<path fill="none" stroke="#000000" stroke-dasharray="5,2" d="M271.4613,-187.1061C271.4613,-187.1061 271.4613,-205.991 271.4613,-205.991"/>
<polygon fill="#000000" stroke="#000000" points="267.9613,-205.9909 271.4613,-215.991 274.9613,-205.991 267.9613,-205.9909"/>
</g>
<!-- MenuDropComponent  -->
<g id="node6" class="node">
<title>MenuDropComponent </title>
<polygon fill="#fb8072" stroke="#000000" points="241.759,-252 95.241,-252 95.241,-216 241.759,-216 241.759,-252"/>
<text text-anchor="middle" x="168.5" y="-229.8" font-family="Times,serif" font-size="14.00" fill="#000000">MenuDropComponent </text>
</g>
<!-- MenuModule&#45;&gt;MenuDropComponent  -->
<g id="edge5" class="edge">
<title>MenuModule&#45;&gt;MenuDropComponent </title>
<path fill="none" stroke="#000000" stroke-dasharray="5,2" d="M216.5125,-187.1061C216.5125,-187.1061 216.5125,-205.991 216.5125,-205.991"/>
<polygon fill="#000000" stroke="#000000" points="213.0125,-205.9909 216.5125,-215.991 220.0125,-205.991 213.0125,-205.9909"/>
</g>
<!-- CommonModule -->
<g id="node4" class="node">
<title>CommonModule</title>
<polygon fill="#8dd3c7" stroke="#000000" points="142.1681,-122 139.1681,-126 118.1681,-126 115.1681,-122 30.8319,-122 30.8319,-86 142.1681,-86 142.1681,-122"/>
<text text-anchor="middle" x="86.5" y="-99.8" font-family="Times,serif" font-size="14.00" fill="#000000">CommonModule</text>
</g>
<!-- CommonModule&#45;&gt;MenuModule -->
<g id="edge3" class="edge">
<title>CommonModule&#45;&gt;MenuModule</title>
<path fill="none" stroke="#000000" d="M118.8522,-122.1061C118.8522,-141.3391 118.8522,-169 118.8522,-169 118.8522,-169 181.2879,-169 181.2879,-169"/>
<polygon fill="#000000" stroke="#000000" points="181.288,-172.5001 191.2879,-169 181.2879,-165.5001 181.288,-172.5001"/>
</g>
</g>
</svg>
