<?xml version="1.0" encoding="UTF-8" standalone="no"?>
<!DOCTYPE svg PUBLIC "-//W3C//DTD SVG 1.1//EN"
 "http://www.w3.org/Graphics/SVG/1.1/DTD/svg11.dtd">
<!-- Generated by graphviz version 2.40.1 (20161225.0304)
 -->
<!-- Title: dependencies Pages: 1 -->
<svg width="757pt" height="284pt"
 viewBox="0.00 0.00 757.00 284.00" xmlns="http://www.w3.org/2000/svg" xmlns:xlink="http://www.w3.org/1999/xlink">
<g id="graph0" class="graph" transform="scale(1 1) rotate(0) translate(4 280)">
<title>dependencies</title>
<polygon fill="#ffffff" stroke="transparent" points="-4,4 -4,-280 753,-280 753,4 -4,4"/>
<text text-anchor="start" x="353.5091" y="-42.4" font-family="sans-serif" font-weight="bold" font-size="14.00" fill="#000000">Legend</text>
<polygon fill="#ffffb3" stroke="transparent" points="140.5,-10 140.5,-30 160.5,-30 160.5,-10 140.5,-10"/>
<text text-anchor="start" x="164.129" y="-15.4" font-family="sans-serif" font-size="14.00" fill="#000000"> &#160;Declarations</text>
<polygon fill="#8dd3c7" stroke="transparent" points="253.5,-10 253.5,-30 273.5,-30 273.5,-10 253.5,-10"/>
<text text-anchor="start" x="277.2251" y="-15.4" font-family="sans-serif" font-size="14.00" fill="#000000"> &#160;Module</text>
<polygon fill="#80b1d3" stroke="transparent" points="339.5,-10 339.5,-30 359.5,-30 359.5,-10 339.5,-10"/>
<text text-anchor="start" x="363.2812" y="-15.4" font-family="sans-serif" font-size="14.00" fill="#000000"> &#160;Bootstrap</text>
<polygon fill="#fdb462" stroke="transparent" points="436.5,-10 436.5,-30 456.5,-30 456.5,-10 436.5,-10"/>
<text text-anchor="start" x="460.1732" y="-15.4" font-family="sans-serif" font-size="14.00" fill="#000000"> &#160;Providers</text>
<polygon fill="#fb8072" stroke="transparent" points="532.5,-10 532.5,-30 552.5,-30 552.5,-10 532.5,-10"/>
<text text-anchor="start" x="556.2258" y="-15.4" font-family="sans-serif" font-size="14.00" fill="#000000"> &#160;Exports</text>
<g id="clust1" class="cluster">
<title>cluster_VideoModule</title>
<polygon fill="none" stroke="#000000" stroke-dasharray="1,5" points="8,-70 8,-268 741,-268 741,-70 8,-70"/>
</g>
<g id="clust2" class="cluster">
<title>cluster_VideoModule_declarations</title>
<polygon fill="none" stroke="#000000" points="420,-78 420,-130 733,-130 733,-78 420,-78"/>
</g>
<g id="clust5" class="cluster">
<title>cluster_VideoModule_imports</title>
<polygon fill="none" stroke="#000000" points="168,-78 168,-130 412,-130 412,-78 168,-78"/>
</g>
<g id="clust6" class="cluster">
<title>cluster_VideoModule_exports</title>
<polygon fill="none" stroke="#000000" points="190,-208 190,-260 509,-260 509,-208 190,-208"/>
</g>
<g id="clust8" class="cluster">
<title>cluster_VideoModule_providers</title>
<polygon fill="none" stroke="#000000" points="16,-78 16,-130 160,-130 160,-78 16,-78"/>
</g>
<!-- VideoItemComponent -->
<g id="node1" class="node">
<title>VideoItemComponent</title>
<polygon fill="#ffffb3" stroke="#000000" points="724.7007,-122 583.2993,-122 583.2993,-86 724.7007,-86 724.7007,-122"/>
<text text-anchor="middle" x="654" y="-99.8" font-family="Times,serif" font-size="14.00" fill="#000000">VideoItemComponent</text>
</g>
<!-- VideoModule -->
<g id="node3" class="node">
<title>VideoModule</title>
<polygon fill="#8dd3c7" stroke="#000000" points="394.7619,-187 391.7619,-191 370.7619,-191 367.7619,-187 301.2381,-187 301.2381,-151 394.7619,-151 394.7619,-187"/>
<text text-anchor="middle" x="348" y="-164.8" font-family="Times,serif" font-size="14.00" fill="#000000">VideoModule</text>
</g>
<!-- VideoItemComponent&#45;&gt;VideoModule -->
<g id="edge1" class="edge">
<title>VideoItemComponent&#45;&gt;VideoModule</title>
<path fill="none" stroke="#000000" d="M654,-122.2843C654,-143.3211 654,-175 654,-175 654,-175 404.8079,-175 404.8079,-175"/>
<polygon fill="#000000" stroke="#000000" points="404.8079,-171.5001 394.8079,-175 404.8079,-178.5001 404.8079,-171.5001"/>
</g>
<!-- VideoListComponent -->
<g id="node2" class="node">
<title>VideoListComponent</title>
<polygon fill="#ffffb3" stroke="#000000" points="565.823,-122 428.177,-122 428.177,-86 565.823,-86 565.823,-122"/>
<text text-anchor="middle" x="497" y="-99.8" font-family="Times,serif" font-size="14.00" fill="#000000">VideoListComponent</text>
</g>
<!-- VideoListComponent&#45;&gt;VideoModule -->
<g id="edge2" class="edge">
<title>VideoListComponent&#45;&gt;VideoModule</title>
<path fill="none" stroke="#000000" d="M464.8445,-122.0225C464.8445,-139.3734 464.8445,-163 464.8445,-163 464.8445,-163 404.8519,-163 404.8519,-163"/>
<polygon fill="#000000" stroke="#000000" points="404.8519,-159.5001 394.8519,-163 404.8518,-166.5001 404.8519,-159.5001"/>
</g>
<!-- VideoItemComponent  -->
<g id="node6" class="node">
<title>VideoItemComponent </title>
<polygon fill="#fb8072" stroke="#000000" points="501.2009,-252 356.7991,-252 356.7991,-216 501.2009,-216 501.2009,-252"/>
<text text-anchor="middle" x="429" y="-229.8" font-family="Times,serif" font-size="14.00" fill="#000000">VideoItemComponent </text>
</g>
<!-- VideoModule&#45;&gt;VideoItemComponent  -->
<g id="edge5" class="edge">
<title>VideoModule&#45;&gt;VideoItemComponent </title>
<path fill="none" stroke="#000000" stroke-dasharray="5,2" d="M375.7653,-187.1061C375.7653,-187.1061 375.7653,-205.991 375.7653,-205.991"/>
<polygon fill="#000000" stroke="#000000" points="372.2653,-205.9909 375.7653,-215.991 379.2653,-205.991 372.2653,-205.9909"/>
</g>
<!-- VideoListComponent  -->
<g id="node7" class="node">
<title>VideoListComponent </title>
<polygon fill="#fb8072" stroke="#000000" points="338.3227,-252 197.6773,-252 197.6773,-216 338.3227,-216 338.3227,-252"/>
<text text-anchor="middle" x="268" y="-229.8" font-family="Times,serif" font-size="14.00" fill="#000000">VideoListComponent </text>
</g>
<!-- VideoModule&#45;&gt;VideoListComponent  -->
<g id="edge6" class="edge">
<title>VideoModule&#45;&gt;VideoListComponent </title>
<path fill="none" stroke="#000000" stroke-dasharray="5,2" d="M319.7653,-187.1061C319.7653,-187.1061 319.7653,-205.991 319.7653,-205.991"/>
<polygon fill="#000000" stroke="#000000" points="316.2653,-205.9909 319.7653,-215.991 323.2653,-205.991 316.2653,-205.9909"/>
</g>
<!-- CommonModule -->
<g id="node4" class="node">
<title>CommonModule</title>
<polygon fill="#8dd3c7" stroke="#000000" points="403.6681,-122 400.6681,-126 379.6681,-126 376.6681,-122 292.3319,-122 292.3319,-86 403.6681,-86 403.6681,-122"/>
<text text-anchor="middle" x="348" y="-99.8" font-family="Times,serif" font-size="14.00" fill="#000000">CommonModule</text>
</g>
<!-- CommonModule&#45;&gt;VideoModule -->
<g id="edge3" class="edge">
<title>CommonModule&#45;&gt;VideoModule</title>
<path fill="none" stroke="#000000" d="M348,-122.1061C348,-122.1061 348,-140.991 348,-140.991"/>
<polygon fill="#000000" stroke="#000000" points="344.5001,-140.9909 348,-150.991 351.5001,-140.991 344.5001,-140.9909"/>
</g>
<!-- SharedModule -->
<g id="node5" class="node">
<title>SharedModule</title>
<polygon fill="#8dd3c7" stroke="#000000" points="274.4231,-122 271.4231,-126 250.4231,-126 247.4231,-122 175.5769,-122 175.5769,-86 274.4231,-86 274.4231,-122"/>
<text text-anchor="middle" x="225" y="-99.8" font-family="Times,serif" font-size="14.00" fill="#000000">SharedModule</text>
</g>
<!-- SharedModule&#45;&gt;VideoModule -->
<g id="edge4" class="edge">
<title>SharedModule&#45;&gt;VideoModule</title>
<path fill="none" stroke="#000000" d="M235.8999,-122.0225C235.8999,-139.3734 235.8999,-163 235.8999,-163 235.8999,-163 291.109,-163 291.109,-163"/>
<polygon fill="#000000" stroke="#000000" points="291.109,-166.5001 301.109,-163 291.109,-159.5001 291.109,-166.5001"/>
</g>
<!-- VideoService -->
<g id="node8" class="node">
<title>VideoService</title>
<ellipse fill="#fdb462" stroke="#000000" cx="88" cy="-104" rx="63.6813" ry="18"/>
<text text-anchor="middle" x="88" y="-99.8" font-family="Times,serif" font-size="14.00" fill="#000000">VideoService</text>
</g>
<!-- VideoService&#45;&gt;VideoModule -->
<g id="edge7" class="edge">
<title>VideoService&#45;&gt;VideoModule</title>
<path fill="none" stroke="#000000" d="M88,-122.2843C88,-143.3211 88,-175 88,-175 88,-175 291.2169,-175 291.2169,-175"/>
<polygon fill="#000000" stroke="#000000" points="291.217,-178.5001 301.2169,-175 291.2169,-171.5001 291.217,-178.5001"/>
</g>
</g>
</svg>
