<?xml version="1.0" encoding="UTF-8" standalone="no"?>
<!DOCTYPE svg PUBLIC "-//W3C//DTD SVG 1.1//EN"
 "http://www.w3.org/Graphics/SVG/1.1/DTD/svg11.dtd">
<!-- Generated by graphviz version 2.40.1 (20161225.0304)
 -->
<!-- Title: dependencies Pages: 1 -->
<svg width="614pt" height="284pt"
 viewBox="0.00 0.00 614.00 284.00" xmlns="http://www.w3.org/2000/svg" xmlns:xlink="http://www.w3.org/1999/xlink">
<g id="graph0" class="graph" transform="scale(1 1) rotate(0) translate(4 280)">
<title>dependencies</title>
<polygon fill="#ffffff" stroke="transparent" points="-4,4 -4,-280 610,-280 610,4 -4,4"/>
<text text-anchor="start" x="282.0091" y="-42.4" font-family="sans-serif" font-weight="bold" font-size="14.00" fill="#000000">Legend</text>
<polygon fill="#ffffb3" stroke="transparent" points="69,-10 69,-30 89,-30 89,-10 69,-10"/>
<text text-anchor="start" x="92.629" y="-15.4" font-family="sans-serif" font-size="14.00" fill="#000000"> &#160;Declarations</text>
<polygon fill="#8dd3c7" stroke="transparent" points="182,-10 182,-30 202,-30 202,-10 182,-10"/>
<text text-anchor="start" x="205.7251" y="-15.4" font-family="sans-serif" font-size="14.00" fill="#000000"> &#160;Module</text>
<polygon fill="#80b1d3" stroke="transparent" points="268,-10 268,-30 288,-30 288,-10 268,-10"/>
<text text-anchor="start" x="291.7812" y="-15.4" font-family="sans-serif" font-size="14.00" fill="#000000"> &#160;Bootstrap</text>
<polygon fill="#fdb462" stroke="transparent" points="365,-10 365,-30 385,-30 385,-10 365,-10"/>
<text text-anchor="start" x="388.6732" y="-15.4" font-family="sans-serif" font-size="14.00" fill="#000000"> &#160;Providers</text>
<polygon fill="#fb8072" stroke="transparent" points="461,-10 461,-30 481,-30 481,-10 461,-10"/>
<text text-anchor="start" x="484.7258" y="-15.4" font-family="sans-serif" font-size="14.00" fill="#000000"> &#160;Exports</text>
<g id="clust1" class="cluster">
<title>cluster_ArticleModule</title>
<polygon fill="none" stroke="#000000" stroke-dasharray="1,5" points="8,-70 8,-268 598,-268 598,-70 8,-70"/>
</g>
<g id="clust2" class="cluster">
<title>cluster_ArticleModule_declarations</title>
<polygon fill="none" stroke="#000000" points="268,-78 268,-130 590,-130 590,-78 268,-78"/>
</g>
<g id="clust5" class="cluster">
<title>cluster_ArticleModule_imports</title>
<polygon fill="none" stroke="#000000" points="16,-78 16,-130 260,-130 260,-78 16,-78"/>
</g>
<g id="clust6" class="cluster">
<title>cluster_ArticleModule_exports</title>
<polygon fill="none" stroke="#000000" points="191,-208 191,-260 353,-260 353,-208 191,-208"/>
</g>
<!-- ArticleListComponent -->
<g id="node1" class="node">
<title>ArticleListComponent</title>
<polygon fill="#ffffb3" stroke="#000000" points="581.979,-122 440.021,-122 440.021,-86 581.979,-86 581.979,-122"/>
<text text-anchor="middle" x="511" y="-99.8" font-family="Times,serif" font-size="14.00" fill="#000000">ArticleListComponent</text>
</g>
<!-- ArticleModule -->
<g id="node3" class="node">
<title>ArticleModule</title>
<polygon fill="#8dd3c7" stroke="#000000" points="321.4189,-187 318.4189,-191 297.4189,-191 294.4189,-187 222.5811,-187 222.5811,-151 321.4189,-151 321.4189,-187"/>
<text text-anchor="middle" x="272" y="-164.8" font-family="Times,serif" font-size="14.00" fill="#000000">ArticleModule</text>
</g>
<!-- ArticleListComponent&#45;&gt;ArticleModule -->
<g id="edge1" class="edge">
<title>ArticleListComponent&#45;&gt;ArticleModule</title>
<path fill="none" stroke="#000000" d="M511,-122.1061C511,-141.3391 511,-169 511,-169 511,-169 331.2312,-169 331.2312,-169"/>
<polygon fill="#000000" stroke="#000000" points="331.2312,-165.5001 321.2312,-169 331.2311,-172.5001 331.2312,-165.5001"/>
</g>
<!-- ArticleItemComponent -->
<g id="node2" class="node">
<title>ArticleItemComponent</title>
<polygon fill="#ffffb3" stroke="#000000" points="421.8571,-122 276.1429,-122 276.1429,-86 421.8571,-86 421.8571,-122"/>
<text text-anchor="middle" x="349" y="-99.8" font-family="Times,serif" font-size="14.00" fill="#000000">ArticleItemComponent</text>
</g>
<!-- ArticleItemComponent&#45;&gt;ArticleModule -->
<g id="edge2" class="edge">
<title>ArticleItemComponent&#45;&gt;ArticleModule</title>
<path fill="none" stroke="#000000" d="M298.6403,-122.1061C298.6403,-122.1061 298.6403,-140.991 298.6403,-140.991"/>
<polygon fill="#000000" stroke="#000000" points="295.1403,-140.9909 298.6403,-150.991 302.1403,-140.991 295.1403,-140.9909"/>
</g>
<!-- ArticleListComponent  -->
<g id="node6" class="node">
<title>ArticleListComponent </title>
<polygon fill="#fb8072" stroke="#000000" points="344.9798,-252 199.0202,-252 199.0202,-216 344.9798,-216 344.9798,-252"/>
<text text-anchor="middle" x="272" y="-229.8" font-family="Times,serif" font-size="14.00" fill="#000000">ArticleListComponent </text>
</g>
<!-- ArticleModule&#45;&gt;ArticleListComponent  -->
<g id="edge5" class="edge">
<title>ArticleModule&#45;&gt;ArticleListComponent </title>
<path fill="none" stroke="#000000" stroke-dasharray="5,2" d="M272,-187.1061C272,-187.1061 272,-205.991 272,-205.991"/>
<polygon fill="#000000" stroke="#000000" points="268.5001,-205.9909 272,-215.991 275.5001,-205.991 268.5001,-205.9909"/>
</g>
<!-- CommonModule -->
<g id="node4" class="node">
<title>CommonModule</title>
<polygon fill="#8dd3c7" stroke="#000000" points="251.6681,-122 248.6681,-126 227.6681,-126 224.6681,-122 140.3319,-122 140.3319,-86 251.6681,-86 251.6681,-122"/>
<text text-anchor="middle" x="196" y="-99.8" font-family="Times,serif" font-size="14.00" fill="#000000">CommonModule</text>
</g>
<!-- CommonModule&#45;&gt;ArticleModule -->
<g id="edge3" class="edge">
<title>CommonModule&#45;&gt;ArticleModule</title>
<path fill="none" stroke="#000000" d="M237.3124,-122.1061C237.3124,-122.1061 237.3124,-140.991 237.3124,-140.991"/>
<polygon fill="#000000" stroke="#000000" points="233.8125,-140.9909 237.3124,-150.991 240.8125,-140.991 233.8125,-140.9909"/>
</g>
<!-- SharedModule -->
<g id="node5" class="node">
<title>SharedModule</title>
<polygon fill="#8dd3c7" stroke="#000000" points="122.4231,-122 119.4231,-126 98.4231,-126 95.4231,-122 23.5769,-122 23.5769,-86 122.4231,-86 122.4231,-122"/>
<text text-anchor="middle" x="73" y="-99.8" font-family="Times,serif" font-size="14.00" fill="#000000">SharedModule</text>
</g>
<!-- SharedModule&#45;&gt;ArticleModule -->
<g id="edge4" class="edge">
<title>SharedModule&#45;&gt;ArticleModule</title>
<path fill="none" stroke="#000000" d="M73,-122.1061C73,-141.3391 73,-169 73,-169 73,-169 212.5533,-169 212.5533,-169"/>
<polygon fill="#000000" stroke="#000000" points="212.5533,-172.5001 222.5533,-169 212.5533,-165.5001 212.5533,-172.5001"/>
</g>
</g>
</svg>
