<?xml version="1.0" encoding="UTF-8" standalone="no"?>
<!DOCTYPE svg PUBLIC "-//W3C//DTD SVG 1.1//EN"
 "http://www.w3.org/Graphics/SVG/1.1/DTD/svg11.dtd">
<!-- Generated by graphviz version 2.40.1 (20161225.0304)
 -->
<!-- Title: dependencies Pages: 1 -->
<svg width="732pt" height="284pt"
 viewBox="0.00 0.00 732.00 284.00" xmlns="http://www.w3.org/2000/svg" xmlns:xlink="http://www.w3.org/1999/xlink">
<g id="graph0" class="graph" transform="scale(1 1) rotate(0) translate(4 280)">
<title>dependencies</title>
<polygon fill="#ffffff" stroke="transparent" points="-4,4 -4,-280 728,-280 728,4 -4,4"/>
<text text-anchor="start" x="341.0091" y="-42.4" font-family="sans-serif" font-weight="bold" font-size="14.00" fill="#000000">Legend</text>
<polygon fill="#ffffb3" stroke="transparent" points="128,-10 128,-30 148,-30 148,-10 128,-10"/>
<text text-anchor="start" x="151.629" y="-15.4" font-family="sans-serif" font-size="14.00" fill="#000000"> &#160;Declarations</text>
<polygon fill="#8dd3c7" stroke="transparent" points="241,-10 241,-30 261,-30 261,-10 241,-10"/>
<text text-anchor="start" x="264.7251" y="-15.4" font-family="sans-serif" font-size="14.00" fill="#000000"> &#160;Module</text>
<polygon fill="#80b1d3" stroke="transparent" points="327,-10 327,-30 347,-30 347,-10 327,-10"/>
<text text-anchor="start" x="350.7812" y="-15.4" font-family="sans-serif" font-size="14.00" fill="#000000"> &#160;Bootstrap</text>
<polygon fill="#fdb462" stroke="transparent" points="424,-10 424,-30 444,-30 444,-10 424,-10"/>
<text text-anchor="start" x="447.6732" y="-15.4" font-family="sans-serif" font-size="14.00" fill="#000000"> &#160;Providers</text>
<polygon fill="#fb8072" stroke="transparent" points="520,-10 520,-30 540,-30 540,-10 520,-10"/>
<text text-anchor="start" x="543.7258" y="-15.4" font-family="sans-serif" font-size="14.00" fill="#000000"> &#160;Exports</text>
<g id="clust1" class="cluster">
<title>cluster_PageModule</title>
<polygon fill="none" stroke="#000000" stroke-dasharray="1,5" points="8,-70 8,-268 716,-268 716,-70 8,-70"/>
</g>
<g id="clust2" class="cluster">
<title>cluster_PageModule_declarations</title>
<polygon fill="none" stroke="#000000" points="268,-78 268,-130 708,-130 708,-78 268,-78"/>
</g>
<g id="clust6" class="cluster">
<title>cluster_PageModule_imports</title>
<polygon fill="none" stroke="#000000" points="16,-78 16,-130 260,-130 260,-78 16,-78"/>
</g>
<g id="clust7" class="cluster">
<title>cluster_PageModule_exports</title>
<polygon fill="none" stroke="#000000" points="119,-208 119,-260 569,-260 569,-208 119,-208"/>
</g>
<!-- ChiSiamoComponent -->
<g id="node1" class="node">
<title>ChiSiamoComponent</title>
<polygon fill="#ffffb3" stroke="#000000" points="699.8384,-122 562.1616,-122 562.1616,-86 699.8384,-86 699.8384,-122"/>
<text text-anchor="middle" x="631" y="-99.8" font-family="Times,serif" font-size="14.00" fill="#000000">ChiSiamoComponent</text>
</g>
<!-- PageModule -->
<g id="node4" class="node">
<title>PageModule</title>
<polygon fill="#8dd3c7" stroke="#000000" points="381.2619,-187 378.2619,-191 357.2619,-191 354.2619,-187 294.7381,-187 294.7381,-151 381.2619,-151 381.2619,-187"/>
<text text-anchor="middle" x="338" y="-164.8" font-family="Times,serif" font-size="14.00" fill="#000000">PageModule</text>
</g>
<!-- ChiSiamoComponent&#45;&gt;PageModule -->
<g id="edge1" class="edge">
<title>ChiSiamoComponent&#45;&gt;PageModule</title>
<path fill="none" stroke="#000000" d="M631,-122.1061C631,-141.3391 631,-169 631,-169 631,-169 391.5487,-169 391.5487,-169"/>
<polygon fill="#000000" stroke="#000000" points="391.5487,-165.5001 381.5487,-169 391.5486,-172.5001 391.5487,-165.5001"/>
</g>
<!-- ContattiComponent -->
<g id="node2" class="node">
<title>ContattiComponent</title>
<polygon fill="#ffffb3" stroke="#000000" points="544.4468,-122 417.5532,-122 417.5532,-86 544.4468,-86 544.4468,-122"/>
<text text-anchor="middle" x="481" y="-99.8" font-family="Times,serif" font-size="14.00" fill="#000000">ContattiComponent</text>
</g>
<!-- ContattiComponent&#45;&gt;PageModule -->
<g id="edge2" class="edge">
<title>ContattiComponent&#45;&gt;PageModule</title>
<path fill="none" stroke="#000000" d="M503.009,-122.027C503.009,-138.3976 503.009,-160 503.009,-160 503.009,-160 391.3542,-160 391.3542,-160"/>
<polygon fill="#000000" stroke="#000000" points="391.3542,-156.5001 381.3542,-160 391.3541,-163.5001 391.3542,-156.5001"/>
</g>
<!-- PrivacyComponent -->
<g id="node3" class="node">
<title>PrivacyComponent</title>
<polygon fill="#ffffb3" stroke="#000000" points="400.0954,-122 275.9046,-122 275.9046,-86 400.0954,-86 400.0954,-122"/>
<text text-anchor="middle" x="338" y="-99.8" font-family="Times,serif" font-size="14.00" fill="#000000">PrivacyComponent</text>
</g>
<!-- PrivacyComponent&#45;&gt;PageModule -->
<g id="edge3" class="edge">
<title>PrivacyComponent&#45;&gt;PageModule</title>
<path fill="none" stroke="#000000" d="M338,-122.1061C338,-122.1061 338,-140.991 338,-140.991"/>
<polygon fill="#000000" stroke="#000000" points="334.5001,-140.9909 338,-150.991 341.5001,-140.991 334.5001,-140.9909"/>
</g>
<!-- ChiSiamoComponent  -->
<g id="node7" class="node">
<title>ChiSiamoComponent </title>
<polygon fill="#fb8072" stroke="#000000" points="561.3381,-252 420.6619,-252 420.6619,-216 561.3381,-216 561.3381,-252"/>
<text text-anchor="middle" x="491" y="-229.8" font-family="Times,serif" font-size="14.00" fill="#000000">ChiSiamoComponent </text>
</g>
<!-- PageModule&#45;&gt;ChiSiamoComponent  -->
<g id="edge6" class="edge">
<title>PageModule&#45;&gt;ChiSiamoComponent </title>
<path fill="none" stroke="#000000" stroke-dasharray="5,2" d="M381.2975,-178C416.9964,-178 461.795,-178 461.795,-178 461.795,-178 461.795,-205.973 461.795,-205.973"/>
<polygon fill="#000000" stroke="#000000" points="458.2951,-205.973 461.795,-215.973 465.2951,-205.973 458.2951,-205.973"/>
</g>
<!-- ContattiComponent  -->
<g id="node8" class="node">
<title>ContattiComponent </title>
<polygon fill="#fb8072" stroke="#000000" points="402.946,-252 273.054,-252 273.054,-216 402.946,-216 402.946,-252"/>
<text text-anchor="middle" x="338" y="-229.8" font-family="Times,serif" font-size="14.00" fill="#000000">ContattiComponent </text>
</g>
<!-- PageModule&#45;&gt;ContattiComponent  -->
<g id="edge7" class="edge">
<title>PageModule&#45;&gt;ContattiComponent </title>
<path fill="none" stroke="#000000" stroke-dasharray="5,2" d="M338,-187.1061C338,-187.1061 338,-205.991 338,-205.991"/>
<polygon fill="#000000" stroke="#000000" points="334.5001,-205.9909 338,-215.991 341.5001,-205.991 334.5001,-205.9909"/>
</g>
<!-- PrivacyComponent  -->
<g id="node9" class="node">
<title>PrivacyComponent </title>
<polygon fill="#fb8072" stroke="#000000" points="254.596,-252 127.404,-252 127.404,-216 254.596,-216 254.596,-252"/>
<text text-anchor="middle" x="191" y="-229.8" font-family="Times,serif" font-size="14.00" fill="#000000">PrivacyComponent </text>
</g>
<!-- PageModule&#45;&gt;PrivacyComponent  -->
<g id="edge8" class="edge">
<title>PageModule&#45;&gt;PrivacyComponent </title>
<path fill="none" stroke="#000000" stroke-dasharray="5,2" d="M294.5363,-178C246.9706,-178 177.3887,-178 177.3887,-178 177.3887,-178 177.3887,-205.973 177.3887,-205.973"/>
<polygon fill="#000000" stroke="#000000" points="173.8888,-205.973 177.3887,-215.973 180.8888,-205.973 173.8888,-205.973"/>
</g>
<!-- CommonModule -->
<g id="node5" class="node">
<title>CommonModule</title>
<polygon fill="#8dd3c7" stroke="#000000" points="251.6681,-122 248.6681,-126 227.6681,-126 224.6681,-122 140.3319,-122 140.3319,-86 251.6681,-86 251.6681,-122"/>
<text text-anchor="middle" x="196" y="-99.8" font-family="Times,serif" font-size="14.00" fill="#000000">CommonModule</text>
</g>
<!-- CommonModule&#45;&gt;PageModule -->
<g id="edge4" class="edge">
<title>CommonModule&#45;&gt;PageModule</title>
<path fill="none" stroke="#000000" d="M214.6113,-122.027C214.6113,-138.3976 214.6113,-160 214.6113,-160 214.6113,-160 284.4977,-160 284.4977,-160"/>
<polygon fill="#000000" stroke="#000000" points="284.4978,-163.5001 294.4977,-160 284.4977,-156.5001 284.4978,-163.5001"/>
</g>
<!-- SharedModule -->
<g id="node6" class="node">
<title>SharedModule</title>
<polygon fill="#8dd3c7" stroke="#000000" points="122.4231,-122 119.4231,-126 98.4231,-126 95.4231,-122 23.5769,-122 23.5769,-86 122.4231,-86 122.4231,-122"/>
<text text-anchor="middle" x="73" y="-99.8" font-family="Times,serif" font-size="14.00" fill="#000000">SharedModule</text>
</g>
<!-- SharedModule&#45;&gt;PageModule -->
<g id="edge5" class="edge">
<title>SharedModule&#45;&gt;PageModule</title>
<path fill="none" stroke="#000000" d="M73,-122.1061C73,-141.3391 73,-169 73,-169 73,-169 284.5374,-169 284.5374,-169"/>
<polygon fill="#000000" stroke="#000000" points="284.5374,-172.5001 294.5374,-169 284.5373,-165.5001 284.5374,-172.5001"/>
</g>
</g>
</svg>
