<?xml version="1.0" encoding="UTF-8" standalone="no"?>
<!DOCTYPE svg PUBLIC "-//W3C//DTD SVG 1.1//EN"
 "http://www.w3.org/Graphics/SVG/1.1/DTD/svg11.dtd">
<!-- Generated by graphviz version 2.40.1 (20161225.0304)
 -->
<!-- Title: dependencies Pages: 1 -->
<svg width="2199pt" height="284pt"
 viewBox="0.00 0.00 2199.00 284.00" xmlns="http://www.w3.org/2000/svg" xmlns:xlink="http://www.w3.org/1999/xlink">
<g id="graph0" class="graph" transform="scale(1 1) rotate(0) translate(4 280)">
<title>dependencies</title>
<polygon fill="#ffffff" stroke="transparent" points="-4,4 -4,-280 2195,-280 2195,4 -4,4"/>
<text text-anchor="start" x="1074.5091" y="-42.4" font-family="sans-serif" font-weight="bold" font-size="14.00" fill="#000000">Legend</text>
<polygon fill="#ffffb3" stroke="transparent" points="861.5,-10 861.5,-30 881.5,-30 881.5,-10 861.5,-10"/>
<text text-anchor="start" x="885.129" y="-15.4" font-family="sans-serif" font-size="14.00" fill="#000000"> &#160;Declarations</text>
<polygon fill="#8dd3c7" stroke="transparent" points="974.5,-10 974.5,-30 994.5,-30 994.5,-10 974.5,-10"/>
<text text-anchor="start" x="998.2251" y="-15.4" font-family="sans-serif" font-size="14.00" fill="#000000"> &#160;Module</text>
<polygon fill="#80b1d3" stroke="transparent" points="1060.5,-10 1060.5,-30 1080.5,-30 1080.5,-10 1060.5,-10"/>
<text text-anchor="start" x="1084.2812" y="-15.4" font-family="sans-serif" font-size="14.00" fill="#000000"> &#160;Bootstrap</text>
<polygon fill="#fdb462" stroke="transparent" points="1157.5,-10 1157.5,-30 1177.5,-30 1177.5,-10 1157.5,-10"/>
<text text-anchor="start" x="1181.1732" y="-15.4" font-family="sans-serif" font-size="14.00" fill="#000000"> &#160;Providers</text>
<polygon fill="#fb8072" stroke="transparent" points="1253.5,-10 1253.5,-30 1273.5,-30 1273.5,-10 1253.5,-10"/>
<text text-anchor="start" x="1277.2258" y="-15.4" font-family="sans-serif" font-size="14.00" fill="#000000"> &#160;Exports</text>
<g id="clust1" class="cluster">
<title>cluster_AppModule</title>
<polygon fill="none" stroke="#000000" stroke-dasharray="1,5" points="8,-70 8,-268 2183,-268 2183,-70 8,-70"/>
</g>
<g id="clust2" class="cluster">
<title>cluster_AppModule_declarations</title>
<polygon fill="none" stroke="#000000" points="1743,-78 1743,-130 2175,-130 2175,-78 1743,-78"/>
</g>
<g id="clust6" class="cluster">
<title>cluster_AppModule_imports</title>
<polygon fill="none" stroke="#000000" points="476,-78 476,-130 1735,-130 1735,-78 476,-78"/>
</g>
<g id="clust8" class="cluster">
<title>cluster_AppModule_bootstrap</title>
<polygon fill="none" stroke="#000000" points="1154,-208 1154,-260 1278,-260 1278,-208 1154,-208"/>
</g>
<g id="clust9" class="cluster">
<title>cluster_AppModule_providers</title>
<polygon fill="none" stroke="#000000" points="16,-78 16,-130 468,-130 468,-78 16,-78"/>
</g>
<!-- AppComponent -->
<g id="node1" class="node">
<title>AppComponent</title>
<polygon fill="#ffffb3" stroke="#000000" points="2166.9399,-122 2061.0601,-122 2061.0601,-86 2166.9399,-86 2166.9399,-122"/>
<text text-anchor="middle" x="2114" y="-99.8" font-family="Times,serif" font-size="14.00" fill="#000000">AppComponent</text>
</g>
<!-- AppModule -->
<g id="node4" class="node">
<title>AppModule</title>
<polygon fill="#8dd3c7" stroke="#000000" points="1257.6571,-187 1254.6571,-191 1233.6571,-191 1230.6571,-187 1174.3429,-187 1174.3429,-151 1257.6571,-151 1257.6571,-187"/>
<text text-anchor="middle" x="1216" y="-164.8" font-family="Times,serif" font-size="14.00" fill="#000000">AppModule</text>
</g>
<!-- AppComponent&#45;&gt;AppModule -->
<g id="edge1" class="edge">
<title>AppComponent&#45;&gt;AppModule</title>
<path fill="none" stroke="#000000" d="M2114,-122.0908C2114,-145.1328 2114,-182 2114,-182 2114,-182 1267.8092,-182 1267.8092,-182"/>
<polygon fill="#000000" stroke="#000000" points="1267.8092,-178.5001 1257.8092,-182 1267.8092,-185.5001 1267.8092,-178.5001"/>
</g>
<!-- DashboardComponent -->
<g id="node2" class="node">
<title>DashboardComponent</title>
<polygon fill="#ffffb3" stroke="#000000" points="2042.9734,-122 1901.0266,-122 1901.0266,-86 2042.9734,-86 2042.9734,-122"/>
<text text-anchor="middle" x="1972" y="-99.8" font-family="Times,serif" font-size="14.00" fill="#000000">DashboardComponent</text>
</g>
<!-- DashboardComponent&#45;&gt;AppModule -->
<g id="edge2" class="edge">
<title>DashboardComponent&#45;&gt;AppModule</title>
<path fill="none" stroke="#000000" d="M1972,-122.0449C1972,-143.6623 1972,-177 1972,-177 1972,-177 1267.7227,-177 1267.7227,-177"/>
<polygon fill="#000000" stroke="#000000" points="1267.7227,-173.5001 1257.7227,-177 1267.7227,-180.5001 1267.7227,-173.5001"/>
</g>
<!-- StartMsgComponent -->
<g id="node3" class="node">
<title>StartMsgComponent</title>
<polygon fill="#ffffb3" stroke="#000000" points="1883.161,-122 1750.839,-122 1750.839,-86 1883.161,-86 1883.161,-122"/>
<text text-anchor="middle" x="1817" y="-99.8" font-family="Times,serif" font-size="14.00" fill="#000000">StartMsgComponent</text>
</g>
<!-- StartMsgComponent&#45;&gt;AppModule -->
<g id="edge3" class="edge">
<title>StartMsgComponent&#45;&gt;AppModule</title>
<path fill="none" stroke="#000000" d="M1817,-122.2228C1817,-142.3652 1817,-172 1817,-172 1817,-172 1267.784,-172 1267.784,-172"/>
<polygon fill="#000000" stroke="#000000" points="1267.784,-168.5001 1257.784,-172 1267.784,-175.5001 1267.784,-168.5001"/>
</g>
<!-- AppComponent  -->
<g id="node15" class="node">
<title>AppComponent </title>
<polygon fill="#80b1d3" stroke="#000000" points="1270.439,-252 1161.561,-252 1161.561,-216 1270.439,-216 1270.439,-252"/>
<text text-anchor="middle" x="1216" y="-229.8" font-family="Times,serif" font-size="14.00" fill="#000000">AppComponent </text>
</g>
<!-- AppModule&#45;&gt;AppComponent  -->
<g id="edge14" class="edge">
<title>AppModule&#45;&gt;AppComponent </title>
<path fill="none" stroke="#000000" stroke-dasharray="1,5" d="M1216,-187.1061C1216,-187.1061 1216,-205.991 1216,-205.991"/>
<polygon fill="#000000" stroke="#000000" points="1212.5001,-205.9909 1216,-215.991 1219.5001,-205.991 1212.5001,-205.9909"/>
</g>
<!-- BrowserModule -->
<g id="node5" class="node">
<title>BrowserModule</title>
<polygon fill="#8dd3c7" stroke="#000000" points="1727.4734,-122 1724.4734,-126 1703.4734,-126 1700.4734,-122 1620.5266,-122 1620.5266,-86 1727.4734,-86 1727.4734,-122"/>
<text text-anchor="middle" x="1674" y="-99.8" font-family="Times,serif" font-size="14.00" fill="#000000">BrowserModule</text>
</g>
<!-- BrowserModule&#45;&gt;AppModule -->
<g id="edge4" class="edge">
<title>BrowserModule&#45;&gt;AppModule</title>
<path fill="none" stroke="#000000" d="M1674,-122.2222C1674,-140.8285 1674,-167 1674,-167 1674,-167 1267.8586,-167 1267.8586,-167"/>
<polygon fill="#000000" stroke="#000000" points="1267.8586,-163.5001 1257.8586,-167 1267.8586,-170.5001 1267.8586,-163.5001"/>
</g>
<!-- AppRoutingModule -->
<g id="node6" class="node">
<title>AppRoutingModule</title>
<polygon fill="#8dd3c7" stroke="#000000" points="1602.2744,-122 1599.2744,-126 1578.2744,-126 1575.2744,-122 1473.7256,-122 1473.7256,-86 1602.2744,-86 1602.2744,-122"/>
<text text-anchor="middle" x="1538" y="-99.8" font-family="Times,serif" font-size="14.00" fill="#000000">AppRoutingModule</text>
</g>
<!-- AppRoutingModule&#45;&gt;AppModule -->
<g id="edge5" class="edge">
<title>AppRoutingModule&#45;&gt;AppModule</title>
<path fill="none" stroke="#000000" d="M1538,-122.0336C1538,-139.0597 1538,-162 1538,-162 1538,-162 1267.7658,-162 1267.7658,-162"/>
<polygon fill="#000000" stroke="#000000" points="1267.7658,-158.5001 1257.7658,-162 1267.7657,-165.5001 1267.7658,-158.5001"/>
</g>
<!-- HttpClientModule -->
<g id="node7" class="node">
<title>HttpClientModule</title>
<polygon fill="#8dd3c7" stroke="#000000" points="1455.1611,-122 1452.1611,-126 1431.1611,-126 1428.1611,-122 1336.8389,-122 1336.8389,-86 1455.1611,-86 1455.1611,-122"/>
<text text-anchor="middle" x="1396" y="-99.8" font-family="Times,serif" font-size="14.00" fill="#000000">HttpClientModule</text>
</g>
<!-- HttpClientModule&#45;&gt;AppModule -->
<g id="edge6" class="edge">
<title>HttpClientModule&#45;&gt;AppModule</title>
<path fill="none" stroke="#000000" d="M1396,-122.2396C1396,-137.5706 1396,-157 1396,-157 1396,-157 1267.748,-157 1267.748,-157"/>
<polygon fill="#000000" stroke="#000000" points="1267.7481,-153.5001 1257.748,-157 1267.748,-160.5001 1267.7481,-153.5001"/>
</g>
<!-- FormsModule -->
<g id="node8" class="node">
<title>FormsModule</title>
<polygon fill="#8dd3c7" stroke="#000000" points="1318.8288,-122 1315.8288,-126 1294.8288,-126 1291.8288,-122 1223.1712,-122 1223.1712,-86 1318.8288,-86 1318.8288,-122"/>
<text text-anchor="middle" x="1271" y="-99.8" font-family="Times,serif" font-size="14.00" fill="#000000">FormsModule</text>
</g>
<!-- FormsModule&#45;&gt;AppModule -->
<g id="edge7" class="edge">
<title>FormsModule&#45;&gt;AppModule</title>
<path fill="none" stroke="#000000" d="M1240.5821,-122.1061C1240.5821,-122.1061 1240.5821,-140.991 1240.5821,-140.991"/>
<polygon fill="#000000" stroke="#000000" points="1237.0821,-140.9909 1240.5821,-150.991 1244.0821,-140.991 1237.0821,-140.9909"/>
</g>
<!-- PageModule -->
<g id="node9" class="node">
<title>PageModule</title>
<polygon fill="#8dd3c7" stroke="#000000" points="1205.2619,-122 1202.2619,-126 1181.2619,-126 1178.2619,-122 1118.7381,-122 1118.7381,-86 1205.2619,-86 1205.2619,-122"/>
<text text-anchor="middle" x="1162" y="-99.8" font-family="Times,serif" font-size="14.00" fill="#000000">PageModule</text>
</g>
<!-- PageModule&#45;&gt;AppModule -->
<g id="edge8" class="edge">
<title>PageModule&#45;&gt;AppModule</title>
<path fill="none" stroke="#000000" d="M1189.7763,-122.1061C1189.7763,-122.1061 1189.7763,-140.991 1189.7763,-140.991"/>
<polygon fill="#000000" stroke="#000000" points="1186.2764,-140.9909 1189.7763,-150.991 1193.2764,-140.991 1186.2764,-140.9909"/>
</g>
<!-- SharedModule -->
<g id="node10" class="node">
<title>SharedModule</title>
<polygon fill="#8dd3c7" stroke="#000000" points="1100.4231,-122 1097.4231,-126 1076.4231,-126 1073.4231,-122 1001.5769,-122 1001.5769,-86 1100.4231,-86 1100.4231,-122"/>
<text text-anchor="middle" x="1051" y="-99.8" font-family="Times,serif" font-size="14.00" fill="#000000">SharedModule</text>
</g>
<!-- SharedModule&#45;&gt;AppModule -->
<g id="edge9" class="edge">
<title>SharedModule&#45;&gt;AppModule</title>
<path fill="none" stroke="#000000" d="M1051,-122.2396C1051,-137.5706 1051,-157 1051,-157 1051,-157 1163.9366,-157 1163.9366,-157"/>
<polygon fill="#000000" stroke="#000000" points="1163.9366,-160.5001 1173.9366,-157 1163.9366,-153.5001 1163.9366,-160.5001"/>
</g>
<!-- GpFormModule -->
<g id="node11" class="node">
<title>GpFormModule</title>
<polygon fill="#8dd3c7" stroke="#000000" points="983.4902,-122 980.4902,-126 959.4902,-126 956.4902,-122 876.5098,-122 876.5098,-86 983.4902,-86 983.4902,-122"/>
<text text-anchor="middle" x="930" y="-99.8" font-family="Times,serif" font-size="14.00" fill="#000000">GpFormModule</text>
</g>
<!-- GpFormModule&#45;&gt;AppModule -->
<g id="edge10" class="edge">
<title>GpFormModule&#45;&gt;AppModule</title>
<path fill="none" stroke="#000000" d="M930,-122.0336C930,-139.0597 930,-162 930,-162 930,-162 1164.1069,-162 1164.1069,-162"/>
<polygon fill="#000000" stroke="#000000" points="1164.1069,-165.5001 1174.1069,-162 1164.1068,-158.5001 1164.1069,-165.5001"/>
</g>
<!-- ArticleModule -->
<g id="node12" class="node">
<title>ArticleModule</title>
<polygon fill="#8dd3c7" stroke="#000000" points="858.4189,-122 855.4189,-126 834.4189,-126 831.4189,-122 759.5811,-122 759.5811,-86 858.4189,-86 858.4189,-122"/>
<text text-anchor="middle" x="809" y="-99.8" font-family="Times,serif" font-size="14.00" fill="#000000">ArticleModule</text>
</g>
<!-- ArticleModule&#45;&gt;AppModule -->
<g id="edge11" class="edge">
<title>ArticleModule&#45;&gt;AppModule</title>
<path fill="none" stroke="#000000" d="M809,-122.2222C809,-140.8285 809,-167 809,-167 809,-167 1163.9768,-167 1163.9768,-167"/>
<polygon fill="#000000" stroke="#000000" points="1163.9768,-170.5001 1173.9768,-167 1163.9768,-163.5001 1163.9768,-170.5001"/>
</g>
<!-- VideoModule -->
<g id="node13" class="node">
<title>VideoModule</title>
<polygon fill="#8dd3c7" stroke="#000000" points="741.7619,-122 738.7619,-126 717.7619,-126 714.7619,-122 648.2381,-122 648.2381,-86 741.7619,-86 741.7619,-122"/>
<text text-anchor="middle" x="695" y="-99.8" font-family="Times,serif" font-size="14.00" fill="#000000">VideoModule</text>
</g>
<!-- VideoModule&#45;&gt;AppModule -->
<g id="edge12" class="edge">
<title>VideoModule&#45;&gt;AppModule</title>
<path fill="none" stroke="#000000" d="M695,-122.2228C695,-142.3652 695,-172 695,-172 695,-172 1164.2451,-172 1164.2451,-172"/>
<polygon fill="#000000" stroke="#000000" points="1164.2451,-175.5001 1174.2451,-172 1164.245,-168.5001 1164.2451,-175.5001"/>
</g>
<!-- EmbedVideo.forRoot() -->
<g id="node14" class="node">
<title>EmbedVideo.forRoot()</title>
<polygon fill="#8dd3c7" stroke="#000000" points="630.2394,-122 627.2394,-126 606.2394,-126 603.2394,-122 483.7606,-122 483.7606,-86 630.2394,-86 630.2394,-122"/>
<text text-anchor="middle" x="557" y="-99.8" font-family="Times,serif" font-size="14.00" fill="#000000">EmbedVideo.forRoot()</text>
</g>
<!-- EmbedVideo.forRoot()&#45;&gt;AppModule -->
<g id="edge13" class="edge">
<title>EmbedVideo.forRoot()&#45;&gt;AppModule</title>
<path fill="none" stroke="#000000" d="M557,-122.0449C557,-143.6623 557,-177 557,-177 557,-177 1164.2767,-177 1164.2767,-177"/>
<polygon fill="#000000" stroke="#000000" points="1164.2767,-180.5001 1174.2767,-177 1164.2766,-173.5001 1164.2767,-180.5001"/>
</g>
<!-- { provide: &#39;HOME_URL&#39;, useValue: &#39;http://eifis.it&#39; } -->
<g id="node16" class="node">
<title>{ provide: &#39;HOME_URL&#39;, useValue: &#39;http://eifis.it&#39; }</title>
<ellipse fill="#fdb462" stroke="#000000" cx="242" cy="-104" rx="218.4817" ry="18"/>
<text text-anchor="middle" x="242" y="-99.8" font-family="Times,serif" font-size="14.00" fill="#000000">{ provide: &#39;HOME_URL&#39;, useValue: &#39;http://eifis.it&#39; }</text>
</g>
<!-- { provide: &#39;HOME_URL&#39;, useValue: &#39;http://eifis.it&#39; }&#45;&gt;AppModule -->
<g id="edge15" class="edge">
<title>{ provide: &#39;HOME_URL&#39;, useValue: &#39;http://eifis.it&#39; }&#45;&gt;AppModule</title>
<path fill="none" stroke="#000000" d="M242,-122.0908C242,-145.1328 242,-182 242,-182 242,-182 1164.1484,-182 1164.1484,-182"/>
<polygon fill="#000000" stroke="#000000" points="1164.1485,-185.5001 1174.1484,-182 1164.1484,-178.5001 1164.1485,-185.5001"/>
</g>
</g>
</svg>
