<?xml version="1.0" encoding="UTF-8" standalone="no"?>
<!DOCTYPE svg PUBLIC "-//W3C//DTD SVG 1.1//EN"
 "http://www.w3.org/Graphics/SVG/1.1/DTD/svg11.dtd">
<!-- Generated by graphviz version 2.40.1 (20161225.0304)
 -->
<!-- Title: dependencies Pages: 1 -->
<svg width="504pt" height="211pt"
 viewBox="0.00 0.00 504.00 211.00" xmlns="http://www.w3.org/2000/svg" xmlns:xlink="http://www.w3.org/1999/xlink">
<g id="graph0" class="graph" transform="scale(1 1) rotate(0) translate(4 207)">
<title>dependencies</title>
<polygon fill="#ffffff" stroke="transparent" points="-4,4 -4,-207 500,-207 500,4 -4,4"/>
<text text-anchor="start" x="227.0091" y="-42.4" font-family="sans-serif" font-weight="bold" font-size="14.00" fill="#000000">Legend</text>
<polygon fill="#ffffb3" stroke="transparent" points="14,-10 14,-30 34,-30 34,-10 14,-10"/>
<text text-anchor="start" x="37.629" y="-15.4" font-family="sans-serif" font-size="14.00" fill="#000000"> &#160;Declarations</text>
<polygon fill="#8dd3c7" stroke="transparent" points="127,-10 127,-30 147,-30 147,-10 127,-10"/>
<text text-anchor="start" x="150.7251" y="-15.4" font-family="sans-serif" font-size="14.00" fill="#000000"> &#160;Module</text>
<polygon fill="#80b1d3" stroke="transparent" points="213,-10 213,-30 233,-30 233,-10 213,-10"/>
<text text-anchor="start" x="236.7812" y="-15.4" font-family="sans-serif" font-size="14.00" fill="#000000"> &#160;Bootstrap</text>
<polygon fill="#fdb462" stroke="transparent" points="310,-10 310,-30 330,-30 330,-10 310,-10"/>
<text text-anchor="start" x="333.6732" y="-15.4" font-family="sans-serif" font-size="14.00" fill="#000000"> &#160;Providers</text>
<polygon fill="#fb8072" stroke="transparent" points="406,-10 406,-30 426,-30 426,-10 406,-10"/>
<text text-anchor="start" x="429.7258" y="-15.4" font-family="sans-serif" font-size="14.00" fill="#000000"> &#160;Exports</text>
<g id="clust1" class="cluster">
<title>cluster_EventModule</title>
<polygon fill="none" stroke="#000000" stroke-dasharray="1,5" points="96,-70 96,-195 400,-195 400,-70 96,-70"/>
</g>
<g id="clust2" class="cluster">
<title>cluster_EventModule_declarations</title>
<polygon fill="none" stroke="#000000" points="240,-78 240,-130 392,-130 392,-78 240,-78"/>
</g>
<g id="clust4" class="cluster">
<title>cluster_EventModule_imports</title>
<polygon fill="none" stroke="#000000" points="104,-78 104,-130 232,-130 232,-78 104,-78"/>
</g>
<!-- EventListComponent -->
<g id="node1" class="node">
<title>EventListComponent</title>
<polygon fill="#ffffb3" stroke="#000000" points="383.7688,-122 248.2312,-122 248.2312,-86 383.7688,-86 383.7688,-122"/>
<text text-anchor="middle" x="316" y="-99.8" font-family="Times,serif" font-size="14.00" fill="#000000">EventListComponent</text>
</g>
<!-- EventModule -->
<g id="node2" class="node">
<title>EventModule</title>
<polygon fill="#8dd3c7" stroke="#000000" points="288.2078,-187 285.2078,-191 264.2078,-191 261.2078,-187 195.7922,-187 195.7922,-151 288.2078,-151 288.2078,-187"/>
<text text-anchor="middle" x="242" y="-164.8" font-family="Times,serif" font-size="14.00" fill="#000000">EventModule</text>
</g>
<!-- EventListComponent&#45;&gt;EventModule -->
<g id="edge1" class="edge">
<title>EventListComponent&#45;&gt;EventModule</title>
<path fill="none" stroke="#000000" d="M268.1098,-122.1061C268.1098,-122.1061 268.1098,-140.991 268.1098,-140.991"/>
<polygon fill="#000000" stroke="#000000" points="264.6098,-140.9909 268.1098,-150.991 271.6098,-140.991 264.6098,-140.9909"/>
</g>
<!-- CommonModule -->
<g id="node3" class="node">
<title>CommonModule</title>
<polygon fill="#8dd3c7" stroke="#000000" points="223.6681,-122 220.6681,-126 199.6681,-126 196.6681,-122 112.3319,-122 112.3319,-86 223.6681,-86 223.6681,-122"/>
<text text-anchor="middle" x="168" y="-99.8" font-family="Times,serif" font-size="14.00" fill="#000000">CommonModule</text>
</g>
<!-- CommonModule&#45;&gt;EventModule -->
<g id="edge2" class="edge">
<title>CommonModule&#45;&gt;EventModule</title>
<path fill="none" stroke="#000000" d="M209.865,-122.1061C209.865,-122.1061 209.865,-140.991 209.865,-140.991"/>
<polygon fill="#000000" stroke="#000000" points="206.3651,-140.9909 209.865,-150.991 213.3651,-140.991 206.3651,-140.9909"/>
</g>
</g>
</svg>
