<?xml version="1.0" encoding="UTF-8" standalone="no"?>
<!DOCTYPE svg PUBLIC "-//W3C//DTD SVG 1.1//EN"
 "http://www.w3.org/Graphics/SVG/1.1/DTD/svg11.dtd">
<!-- Generated by graphviz version 2.40.1 (20161225.0304)
 -->
<!-- Title: dependencies Pages: 1 -->
<svg width="629pt" height="284pt"
 viewBox="0.00 0.00 629.00 284.00" xmlns="http://www.w3.org/2000/svg" xmlns:xlink="http://www.w3.org/1999/xlink">
<g id="graph0" class="graph" transform="scale(1 1) rotate(0) translate(4 280)">
<title>dependencies</title>
<polygon fill="#ffffff" stroke="transparent" points="-4,4 -4,-280 625,-280 625,4 -4,4"/>
<text text-anchor="start" x="289.5091" y="-42.4" font-family="sans-serif" font-weight="bold" font-size="14.00" fill="#000000">Legend</text>
<polygon fill="#ffffb3" stroke="transparent" points="76.5,-10 76.5,-30 96.5,-30 96.5,-10 76.5,-10"/>
<text text-anchor="start" x="100.129" y="-15.4" font-family="sans-serif" font-size="14.00" fill="#000000"> &#160;Declarations</text>
<polygon fill="#8dd3c7" stroke="transparent" points="189.5,-10 189.5,-30 209.5,-30 209.5,-10 189.5,-10"/>
<text text-anchor="start" x="213.2251" y="-15.4" font-family="sans-serif" font-size="14.00" fill="#000000"> &#160;Module</text>
<polygon fill="#80b1d3" stroke="transparent" points="275.5,-10 275.5,-30 295.5,-30 295.5,-10 275.5,-10"/>
<text text-anchor="start" x="299.2812" y="-15.4" font-family="sans-serif" font-size="14.00" fill="#000000"> &#160;Bootstrap</text>
<polygon fill="#fdb462" stroke="transparent" points="372.5,-10 372.5,-30 392.5,-30 392.5,-10 372.5,-10"/>
<text text-anchor="start" x="396.1732" y="-15.4" font-family="sans-serif" font-size="14.00" fill="#000000"> &#160;Providers</text>
<polygon fill="#fb8072" stroke="transparent" points="468.5,-10 468.5,-30 488.5,-30 488.5,-10 468.5,-10"/>
<text text-anchor="start" x="492.2258" y="-15.4" font-family="sans-serif" font-size="14.00" fill="#000000"> &#160;Exports</text>
<g id="clust1" class="cluster">
<title>cluster_GpFormModule</title>
<polygon fill="none" stroke="#000000" stroke-dasharray="1,5" points="8,-70 8,-268 613,-268 613,-70 8,-70"/>
</g>
<g id="clust2" class="cluster">
<title>cluster_GpFormModule_declarations</title>
<polygon fill="none" stroke="#000000" points="265,-78 265,-130 605,-130 605,-78 265,-78"/>
</g>
<g id="clust5" class="cluster">
<title>cluster_GpFormModule_imports</title>
<polygon fill="none" stroke="#000000" points="16,-78 16,-130 257,-130 257,-78 16,-78"/>
</g>
<g id="clust6" class="cluster">
<title>cluster_GpFormModule_exports</title>
<polygon fill="none" stroke="#000000" points="99,-208 99,-260 445,-260 445,-208 99,-208"/>
</g>
<!-- LoginFormComponent -->
<g id="node1" class="node">
<title>LoginFormComponent</title>
<polygon fill="#ffffb3" stroke="#000000" points="596.6094,-122 451.3906,-122 451.3906,-86 596.6094,-86 596.6094,-122"/>
<text text-anchor="middle" x="524" y="-99.8" font-family="Times,serif" font-size="14.00" fill="#000000">LoginFormComponent</text>
</g>
<!-- GpFormModule -->
<g id="node3" class="node">
<title>GpFormModule</title>
<polygon fill="#8dd3c7" stroke="#000000" points="324.4902,-187 321.4902,-191 300.4902,-191 297.4902,-187 217.5098,-187 217.5098,-151 324.4902,-151 324.4902,-187"/>
<text text-anchor="middle" x="271" y="-164.8" font-family="Times,serif" font-size="14.00" fill="#000000">GpFormModule</text>
</g>
<!-- LoginFormComponent&#45;&gt;GpFormModule -->
<g id="edge1" class="edge">
<title>LoginFormComponent&#45;&gt;GpFormModule</title>
<path fill="none" stroke="#000000" d="M524,-122.1061C524,-141.3391 524,-169 524,-169 524,-169 334.6548,-169 334.6548,-169"/>
<polygon fill="#000000" stroke="#000000" points="334.6548,-165.5001 324.6548,-169 334.6548,-172.5001 334.6548,-165.5001"/>
</g>
<!-- MessageFormComponent -->
<g id="node2" class="node">
<title>MessageFormComponent</title>
<polygon fill="#ffffb3" stroke="#000000" points="433.1442,-122 272.8558,-122 272.8558,-86 433.1442,-86 433.1442,-122"/>
<text text-anchor="middle" x="353" y="-99.8" font-family="Times,serif" font-size="14.00" fill="#000000">MessageFormComponent</text>
</g>
<!-- MessageFormComponent&#45;&gt;GpFormModule -->
<g id="edge2" class="edge">
<title>MessageFormComponent&#45;&gt;GpFormModule</title>
<path fill="none" stroke="#000000" d="M298.5866,-122.1061C298.5866,-122.1061 298.5866,-140.991 298.5866,-140.991"/>
<polygon fill="#000000" stroke="#000000" points="295.0867,-140.9909 298.5866,-150.991 302.0867,-140.991 295.0867,-140.9909"/>
</g>
<!-- LoginFormComponent  -->
<g id="node6" class="node">
<title>LoginFormComponent </title>
<polygon fill="#fb8072" stroke="#000000" points="437.1099,-252 288.8901,-252 288.8901,-216 437.1099,-216 437.1099,-252"/>
<text text-anchor="middle" x="363" y="-229.8" font-family="Times,serif" font-size="14.00" fill="#000000">LoginFormComponent </text>
</g>
<!-- GpFormModule&#45;&gt;LoginFormComponent  -->
<g id="edge5" class="edge">
<title>GpFormModule&#45;&gt;LoginFormComponent </title>
<path fill="none" stroke="#000000" stroke-dasharray="5,2" d="M306.5952,-187.1061C306.5952,-187.1061 306.5952,-205.991 306.5952,-205.991"/>
<polygon fill="#000000" stroke="#000000" points="303.0953,-205.9909 306.5952,-215.991 310.0953,-205.991 303.0953,-205.9909"/>
</g>
<!-- MessageFormComponent  -->
<g id="node7" class="node">
<title>MessageFormComponent </title>
<polygon fill="#fb8072" stroke="#000000" points="271.1439,-252 106.8561,-252 106.8561,-216 271.1439,-216 271.1439,-252"/>
<text text-anchor="middle" x="189" y="-229.8" font-family="Times,serif" font-size="14.00" fill="#000000">MessageFormComponent </text>
</g>
<!-- GpFormModule&#45;&gt;MessageFormComponent  -->
<g id="edge6" class="edge">
<title>GpFormModule&#45;&gt;MessageFormComponent </title>
<path fill="none" stroke="#000000" stroke-dasharray="5,2" d="M244.2884,-187.1061C244.2884,-187.1061 244.2884,-205.991 244.2884,-205.991"/>
<polygon fill="#000000" stroke="#000000" points="240.7885,-205.9909 244.2884,-215.991 247.7885,-205.991 240.7885,-205.9909"/>
</g>
<!-- CommonModule -->
<g id="node4" class="node">
<title>CommonModule</title>
<polygon fill="#8dd3c7" stroke="#000000" points="248.6681,-122 245.6681,-126 224.6681,-126 221.6681,-122 137.3319,-122 137.3319,-86 248.6681,-86 248.6681,-122"/>
<text text-anchor="middle" x="193" y="-99.8" font-family="Times,serif" font-size="14.00" fill="#000000">CommonModule</text>
</g>
<!-- CommonModule&#45;&gt;GpFormModule -->
<g id="edge3" class="edge">
<title>CommonModule&#45;&gt;GpFormModule</title>
<path fill="none" stroke="#000000" d="M233.1694,-122.1061C233.1694,-122.1061 233.1694,-140.991 233.1694,-140.991"/>
<polygon fill="#000000" stroke="#000000" points="229.6694,-140.9909 233.1694,-150.991 236.6694,-140.991 229.6694,-140.9909"/>
</g>
<!-- FormsModule -->
<g id="node5" class="node">
<title>FormsModule</title>
<polygon fill="#8dd3c7" stroke="#000000" points="119.8288,-122 116.8288,-126 95.8288,-126 92.8288,-122 24.1712,-122 24.1712,-86 119.8288,-86 119.8288,-122"/>
<text text-anchor="middle" x="72" y="-99.8" font-family="Times,serif" font-size="14.00" fill="#000000">FormsModule</text>
</g>
<!-- FormsModule&#45;&gt;GpFormModule -->
<g id="edge4" class="edge">
<title>FormsModule&#45;&gt;GpFormModule</title>
<path fill="none" stroke="#000000" d="M113.2961,-122.1061C113.2961,-141.3391 113.2961,-169 113.2961,-169 113.2961,-169 207.1683,-169 207.1683,-169"/>
<polygon fill="#000000" stroke="#000000" points="207.1684,-172.5001 217.1683,-169 207.1683,-165.5001 207.1684,-172.5001"/>
</g>
</g>
</svg>
